<?xml version="1.0" encoding="utf-8"?>
<!-- Generator: Adobe Illustrator 27.9.0, SVG Export Plug-In . SVG Version: 6.00 Build 0)  -->
<svg version="1.1" id="Layer_1" xmlns="http://www.w3.org/2000/svg" xmlns:xlink="http://www.w3.org/1999/xlink" x="0px" y="0px"
	 viewBox="0 0 2834.6 2834.6" style="enable-background:new 0 0 2834.6 2834.6;" xml:space="preserve">
<style type="text/css">
	.st0{fill:none;}
	.st1{fill-rule:evenodd;clip-rule:evenodd;fill:#2C333B;}
	.st2{display:none;fill-rule:evenodd;clip-rule:evenodd;fill:#2C333B;}
	.st3{fill-rule:evenodd;clip-rule:evenodd;fill:#FFFFFF;}
	.st4{fill-rule:evenodd;clip-rule:evenodd;fill:#E7252D;}
	.st5{fill-rule:evenodd;clip-rule:evenodd;fill:#75120B;}
	.st6{fill-rule:evenodd;clip-rule:evenodd;fill:#B5120B;}
</style>
<g id="Layer_1-2">
	<g id="_2151280019120">
		<rect class="st0" width="2834.6" height="2834.6"/>
		<path class="st1" d="M1418,480.8L1418,480.8l107.6,0.1c7,34.7,13.9,69.5,20.9,104.2c6.8,33.7,13.6,67.5,20.3,101.2
			c49.4,9.2,97.2,22.8,143,40.5c23.5-25.1,47-50.3,70.4-75.4c24.2-25.9,48.3-51.9,72.5-77.8c30.6,18.9,61.3,37.8,91.9,56.7
			c30.7,18.9,61.3,37.8,91.9,56.7c-12.4,33.2-24.7,66.5-37,99.7c-12,32.3-24,64.6-36,96.9c26.8,24.3,51.9,50.4,75.2,78.1
			c32.7-10.8,65.5-21.5,98.2-32.2c33.6-11,67.3-22,101-33.1c17.7,31.3,35.5,62.7,53.2,94s35.4,62.6,53.1,93.9
			c-26.8,23.2-53.7,46.3-80.5,69.5c-25.6,22.1-53.6,48.6-80,68.9v0.1c-107.4-258.8-369.3-441.5-675.5-441.5
			c-401.8,0-727.5,314.7-727.5,703s325.7,703,727.5,703c306.1,0,568-182.7,675.4-441.7v0.1c23.5,20.1,55.8,47.9,80,68.8
			c26.9,23.1,53.7,46.3,80.5,69.5c-17.7,31.4-35.4,62.7-53.1,94s-35.5,62.7-53.2,94c-33.6-11-67.3-22.1-101-33.1
			c-32.7-10.8-65.4-21.5-98.2-32.2c-23.3,27.7-48.4,53.8-75.2,78.1c12.1,32.3,24,64.6,36,96.9c12.3,33.2,24.6,66.5,36.9,99.7
			c-30.7,18.9-61.3,37.8-91.9,56.7s-61.2,37.8-91.9,56.7c-24.2-26-48.3-51.9-72.5-77.8c-23.5-25.1-46.9-50.3-70.4-75.4
			c-45.8,17.7-93.6,31.3-143,40.5c-6.7,33.7-13.5,67.5-20.3,101.2c-7,34.7-13.9,69.5-20.9,104.2h-214.7
			c-7-34.7-13.9-69.5-20.9-104.2c-6.8-33.7-13.6-67.5-20.3-101.2c-49.4-9.2-97.2-22.8-143-40.5c-23.5,25.1-47,50.3-70.4,75.4
			c-24.2,25.9-48.3,51.9-72.5,77.8c-30.6-18.9-61.3-37.8-91.9-56.7c-30.7-18.9-61.3-37.8-91.9-56.7c12.3-33.2,24.6-66.5,36.9-99.7
			c11.9-32.3,23.9-64.6,35.9-96.9c-26.8-24.3-51.9-50.4-75.2-78.1c-32.7,10.7-65.5,21.5-98.2,32.2c-33.6,11-67.3,22.1-101,33.1
			c-17.8-31.3-35.5-62.7-53.2-94c-17.7-31.4-35.4-62.7-53.1-94c26.8-23.2,53.6-46.3,80.4-69.5c26-22.4,52-45,78.1-67.4
			c-12.6-36.8-22.7-74.8-29.9-113.8c-33.7-6.7-67.5-13.5-101.2-20.3c-34.7-7-69.5-13.9-104.2-20.9v-216c34.7-7,69.5-13.9,104.2-20.9
			c33.7-6.7,67.5-13.5,101.2-20.3c7.2-39,17.3-77,29.9-113.8c-26-22.4-52.1-44.9-78.1-67.4c-26.8-23.2-53.6-46.3-80.4-69.5
			c17.7-31.3,35.4-62.6,53.1-93.9c17.7-31.3,35.5-62.7,53.2-94c33.6,11,67.3,22.1,101,33.1c32.7,10.8,65.4,21.5,98.2,32.2
			c23.3-27.7,48.4-53.8,75.2-78.1c-12-32.3-23.9-64.6-35.9-96.9c-12.3-33.2-24.6-66.5-36.9-99.7c30.7-18.9,61.3-37.8,91.9-56.7
			s61.2-37.8,91.9-56.7c24.2,26,48.3,51.9,72.5,77.8c23.5,25.1,46.9,50.3,70.4,75.4c45.8-17.7,93.6-31.3,143-40.5
			c6.7-33.8,13.5-67.5,20.3-101.2c7-34.7,13.9-69.5,20.9-104.2L1418,480.8L1418,480.8L1418,480.8z"/>
		<path class="st1" d="M1416.6,480.5h107.3c7,34.7,13.9,69.5,20.9,104.2c6.8,33.7,13.6,67.4,20.3,101.2c49.4,9.2,97.2,22.8,143,40.5
			c23.5-25.1,46.9-50.3,70.4-75.4c24.2-25.9,48.3-51.8,72.5-77.8c30.7,18.9,61.3,37.8,91.9,56.7s61.2,37.8,91.9,56.7
			c-12.3,33.2-24.6,66.5-36.9,99.7c-12,32.3-23.9,64.6-35.9,96.9c26.8,24.3,51.9,50.4,75.2,78.1c32.8-10.7,65.5-21.4,98.2-32.2
			c33.7-11,67.4-22.1,101-33.1c17.7,31.3,35.5,62.7,53.2,94s35.4,62.6,53.1,93.9c-26.8,23.2-53.6,46.3-80.4,69.5
			c-26,22.5-52.1,45-78.1,67.4c12.6,36.8,22.7,74.8,29.9,113.8c33.7,6.8,67.5,13.6,101.2,20.3c34.7,7,69.5,13.9,104.2,20.9v216
			c-34.7,7-69.5,13.9-104.2,20.9c-33.7,6.8-67.5,13.6-101.2,20.3c-7.2,39-17.3,77-29.9,113.8c26.1,22.4,52.1,45,78.1,67.4
			c26.8,23.2,53.6,46.3,80.4,69.5c-17.7,31.3-35.4,62.6-53.1,94c-17.7,31.3-35.4,62.7-53.2,94c-33.7-11-67.4-22.1-101-33.1
			c-32.7-10.7-65.5-21.5-98.2-32.2c-23.3,27.7-48.4,53.8-75.2,78.1c12,32.3,24,64.6,35.9,96.9c12.3,33.2,24.6,66.5,36.9,99.7
			c-30.6,18.9-61.2,37.8-91.9,56.7c-30.6,18.9-61.3,37.8-91.9,56.7c-24.2-25.9-48.3-51.9-72.5-77.8c-23.4-25.1-46.9-50.3-70.4-75.4
			c-45.8,17.7-93.6,31.3-143,40.5c-6.7,33.7-13.5,67.5-20.3,101.2c-7,34.7-13.9,69.5-20.9,104.2h-214.7
			c-7-34.7-13.9-69.5-20.9-104.2c-6.8-33.7-13.6-67.5-20.3-101.2c-49.4-9.2-97.2-22.8-143-40.5c-23.5,25.1-46.9,50.3-70.4,75.4
			c-24.2,25.9-48.3,51.8-72.5,77.8c-30.7-18.9-61.3-37.8-91.9-56.7c-30.6-18.9-61.2-37.8-91.9-56.7c12.3-33.2,24.6-66.5,36.9-99.7
			c12-32.3,23.9-64.6,36-96.9c-26.8-24.3-51.9-50.4-75.2-78.1c-32.8,10.7-65.5,21.4-98.2,32.2c-33.7,11-67.4,22.1-101,33.1
			c-17.7-31.3-35.5-62.7-53.2-94s-35.4-62.6-53.1-94c26.8-23.2,53.6-46.4,80.5-69.5c24.2-20.9,56.5-48.7,80-68.8v-0.1
			c107.4,259,369.3,441.7,675.4,441.7c401.8,0,727.5-314.7,727.5-703s-325.7-703-727.5-703c-306.2,0-568.1,182.7-675.5,441.5v-0.1
			c-26.4-20.3-54.4-46.8-80-68.9c-26.8-23.2-53.7-46.3-80.5-69.5c17.7-31.3,35.4-62.6,53.1-93.9c17.7-31.3,35.5-62.7,53.2-94
			c33.7,11.1,67.4,22.1,101,33.1c32.7,10.7,65.5,21.4,98.2,32.2c23.3-27.7,48.4-53.8,75.2-78.1c-12-32.3-24-64.6-36-96.9
			c-12.3-33.2-24.6-66.5-37-99.7c30.6-18.9,61.2-37.8,91.9-56.7c30.6-18.9,61.3-37.8,91.9-56.7c24.2,25.9,48.3,51.9,72.5,77.8
			c23.4,25.1,46.9,50.3,70.4,75.4c45.8-17.7,93.6-31.3,143-40.5c6.7-33.7,13.5-67.5,20.3-101.2c7-34.7,13.9-69.5,20.9-104.2
			L1416.6,480.5L1416.6,480.5L1416.6,480.5z"/>
		<path class="st1" d="M2120.1,1574.8c0-401.8-314.7-727.5-703-727.5s-703,325.7-703,727.5l-94.8,58.4
			c-33.7-6.7-67.5-13.5-101.2-20.3c-34.7-7-69.5-13.9-104.2-20.9v-214.7c34.7-7,69.5-13.9,104.2-20.9c33.7-6.8,67.5-13.6,101.2-20.3
			c9.2-49.4,609.8-641.8,648.8-649c6.7-33.7,13.5-67.5,20.3-101.2c7-34.7,13.9-69.5,20.9-104.2h216c7,34.7,13.9,69.5,20.9,104.2
			c6.7,33.7,13.5,67.5,20.3,101.2c39,7.2,639.5,599.6,648.7,649c33.8,6.7,67.5,13.5,101.2,20.3c34.7,7,69.5,13.9,104.2,20.9v107.3
			l0,0l-0.1,107.6c-34.7,7-69.5,13.9-104.2,20.9c-33.7,6.8-67.5,13.6-101.2,20.3"/>
		<path class="st1" d="M1566.8,2280.8c-6.8,33.7-13.6,67.5-20.3,101.2c-7,34.7-13.9,69.5-20.9,104.2h-216
			c-7-34.7-13.9-69.5-20.9-104.2c-6.8-33.7-13.6-67.5-20.3-101.2c-39-7.2-639.6-599.6-648.8-649c-33.7-6.7-67.5-13.5-101.2-20.3
			c-34.7-7-69.5-13.9-104.2-20.9v-214.7c34.7-7,69.5-13.9,104.2-20.9c33.7-6.8,67.5-13.6,101.2-20.3c9.2-49.4,247.7-448.7,275.4-472
			c36-29.4,206.8-136.2,261-145h0.1c-259,107.4-441.7,369.3-441.7,675.4c0,401.8,314.7,727.5,703,727.5s703-325.7,703-727.5
			c0-306.2-182.7-568.1-441.5-675.5h0.1c87.4,17.4,222.8,115.9,261,145c27.7,23.3,266.2,422.5,275.4,471.9
			c33.7,6.7,67.5,13.5,101.2,20.3c34.7,7,69.5,13.9,104.2,20.9l0.1,107.6l0,0v107.3c-34.7,7-69.5,13.9-104.2,20.9
			c-33.7,6.8-67.4,13.6-101.2,20.3"/>
		<path class="st2" d="M414,1484.6L414,1484.6l0.1-107.6c34.7-7,69.5-13.9,104.2-20.9c33.7-6.8,67.5-13.6,101.2-20.3
			c9.2-49.4,22.8-97.2,40.5-143c-25.1-23.5-50.3-47-75.4-70.4c-25.9-24.2-51.9-48.3-77.8-72.5c18.9-30.6,37.8-61.3,56.7-91.9
			c18.9-30.7,37.8-61.3,56.7-91.9c33.2,12.4,66.5,24.7,99.7,37c32.3,12,64.6,24,96.9,36c24.3-26.8,50.4-51.9,78.1-75.2
			c-10.8-32.7-21.5-65.5-32.2-98.2c-11-33.6-22-67.3-33.1-101c31.3-17.7,62.7-35.5,94-53.2s62.6-35.4,93.9-53.1
			c23.2,26.8,46.3,53.7,69.5,80.5c22.1,25.6,48.6,53.6,68.9,80h0.1c-258.8,107.4-441.5,369.3-441.5,675.5
			c0,401.8,314.7,727.5,703,727.5s703-325.7,703-727.5c0-306.1-182.7-568-441.7-675.4h0.1c20.1-23.5,47.9-55.8,68.8-80
			c23.1-26.9,46.3-53.7,69.5-80.5c31.4,17.7,62.7,35.4,94,53.1s62.7,35.5,94,53.2c-11,33.6-22.1,67.3-33.1,101
			c-10.8,32.7-21.5,65.4-32.2,98.2c27.7,23.3,53.8,48.4,78.1,75.2c32.3-12.1,64.6-24,96.9-36c33.2-12.3,66.5-24.6,99.7-36.9
			c18.9,30.7,37.8,61.3,56.7,91.9s37.8,61.2,56.7,91.9c-26,24.2-51.9,48.3-77.8,72.5c-25.1,23.5-50.3,46.9-75.4,70.4
			c17.7,45.8,31.3,93.6,40.5,143c33.7,6.7,67.5,13.5,101.2,20.3c34.7,7,69.5,13.9,104.2,20.9v214.7c-34.7,7-69.5,13.9-104.2,20.9
			c-33.7,6.8-67.5,13.6-101.2,20.3c-9.2,49.4-22.8,97.2-40.5,143c25.1,23.5,50.3,47,75.4,70.4c25.9,24.2,51.9,48.3,77.8,72.5
			c-18.9,30.6-37.8,61.3-56.7,91.9c-18.9,30.7-37.8,61.3-56.7,91.9c-33.2-12.3-66.5-24.6-99.7-36.9c-32.3-11.9-64.6-23.9-96.9-35.9
			c-24.3,26.8-50.4,51.9-78.1,75.2c10.7,32.7,21.5,65.5,32.2,98.2c11,33.6,22.1,67.3,33.1,101c-31.3,17.8-62.7,35.5-94,53.2
			c-31.4,17.7-62.7,35.4-94,53.1c-23.2-26.8-46.3-53.6-69.5-80.4c-22.4-26-45-52-67.4-78.1c-36.8,12.6-74.8,22.7-113.8,29.9
			c-6.7,33.7-13.5,67.5-20.3,101.2c-7,34.7-13.9,69.5-20.9,104.2h-216c-7-34.7-13.9-69.5-20.9-104.2c-6.7-33.7-13.5-67.5-20.3-101.2
			c-39-7.2-77-17.3-113.8-29.9c-22.4,26-44.9,52.1-67.4,78.1c-23.2,26.8-46.3,53.6-69.5,80.4c-31.3-17.7-62.6-35.4-93.9-53.1
			c-31.3-17.7-62.7-35.5-94-53.2c11-33.6,22.1-67.3,33.1-101c10.8-32.7,21.5-65.4,32.2-98.2c-27.7-23.3-53.8-48.4-78.1-75.2
			c-32.3,12-64.6,23.9-96.9,35.9c-33.2,12.3-66.5,24.6-99.7,36.9c-18.9-30.7-37.8-61.3-56.7-91.9s-37.8-61.2-56.7-91.9
			c26-24.2,51.9-48.3,77.8-72.5c25.1-23.5,50.3-46.9,75.4-70.4c-17.7-45.8-31.3-93.6-40.5-143c-33.8-6.7-67.5-13.5-101.2-20.3
			c-34.7-7-69.5-13.9-104.2-20.9L414,1484.6L414,1484.6L414,1484.6z"/>
		<path class="st3" d="M1149,701.3C883.2,811.6,695.6,1080.6,695.6,1395c0,412.6,323.2,747.1,721.9,747.1s721.9-334.5,721.9-747.1
			c0-314.3-187.6-583.3-453.6-693.6c0,0-89.6-49-272.7-73.4C1236.5,651.4,1149,701.3,1149,701.3z"/>
		<path class="st4" d="M2053.4,1467.2c6.4-229.5-84.4-456-286.6-606.5c0.1,203.9-47.3,269.8-100.9,282.6
			c38.5-320-87.9-802.5-430.3-1012.4c150.8,625.8-169.9,719.3-375.4,1086.4c-36.7,65.6-47.5,164.2-47.5,266.8
			c0,126,118.6,577.4,643.9,577.4C1887.2,2061.6,2048.4,1648.4,2053.4,1467.2z"/>
	</g>
</g>
<path class="st5" d="M1006,1566.9c0,0,122.4,151.1,426.6,151.1c282.6,0,396.6-151.1,396.6-151.1s-7.9,380.9-408.4,380.9
	S1006,1566.9,1006,1566.9z"/>
<ellipse class="st5" cx="1254" cy="1400.1" rx="82.7" ry="164.3"/>
<ellipse class="st5" cx="1581.9" cy="1400.1" rx="82.7" ry="164.3"/>
<path class="st6" d="M1286.7,1931c0,0,50-34.6,130.8-34.6s120.6,38.7,120.6,38.7s-48.8,12.6-120.9,12.6
	C1345.2,1947.7,1286.7,1931,1286.7,1931z"/>
</svg>
